<?xml version="1.0" encoding="utf-8"?>
<!-- Generator: Adobe Illustrator 24.1.2, SVG Export Plug-In . SVG Version: 6.00 Build 0)  -->
<svg version="1.1" id="Слой_1" xmlns="http://www.w3.org/2000/svg" xmlns:xlink="http://www.w3.org/1999/xlink" x="0px" y="0px"
	 viewBox="0 0 182 30" style="enable-background:new 0 0 182 30;" xml:space="preserve">
<style type="text/css">
	.st0{fill:#FF7B5B;}
</style>
<g>
	<path class="st0" d="M14.3,15.2c-1.6-1.3-3.4-1.9-5.3-1.9c-4.2,0-7.8,3.4-8.9,8.5c-0.2,0.9,0,1.9,0.5,2.6s1.2,1.1,2,1.1h29.9
		c-5.6,0-8.5-2-12.8-5.7L14.3,15.2z M27.1,14.2l-1.5-8.6c-0.2-0.9-0.7-1.8-1.5-2.3s-1.8-0.7-2.7-0.5L11,5C9.5,5.4,8.4,6.6,8.2,8.1
		l-0.4,3.6c0.4,0,0.7-0.1,1.1-0.1c2.3,0,4.5,0.8,6.4,2.3l5.4,4.6c3.9,3.3,6.3,5.3,11.6,5.3c1.4,0,2.6-1.2,2.6-2.6
		C35,19.8,33.4,14.6,27.1,14.2z"/>
</g>
<path class="st0" d="M51.1,10.3c0-1.3,0.6-1.9,1.8-1.9c0.6,0,1.2,0.2,1.6,0.5l1-2.8c-0.7-0.5-1.9-0.7-3-0.7c-3.3,0-5.2,2-5.2,5V11
	h-2.1v3h2.1v10h3.9V13.9h3.4v-3h-3.5V10.3z M61.6,10.4c-2.2,0-4.3,0.6-5.8,1.6l1.4,2.7c1-0.8,2.5-1.3,3.9-1.3c2.1,0,3.1,1,3.1,2.7
	h-3.1c-4.1,0-5.8,1.6-5.8,4c0,2.3,1.9,4.1,5,4.1c2,0,3.4-0.7,4.1-1.9V24h3.7v-7.7C68.1,12.3,65.7,10.4,61.6,10.4z M61.3,21.6
	c-1.4,0-2.2-0.7-2.2-1.6s0.6-1.6,2.4-1.6h2.7v1.4C63.8,21,62.6,21.6,61.3,21.6z M75.4,12.3v-1.8h-3.7V24h3.9v-6.4
	c0-2.6,1.4-3.8,3.6-3.8c0.3,0,0.5,0,0.9,0.1v-3.6C77.9,10.4,76.3,11,75.4,12.3z M99.5,10.4c-2,0-3.8,0.8-4.8,2.2
	c-1-1.5-2.6-2.2-4.4-2.2c-1.7,0-3.2,0.6-4.2,1.8v-1.6h-3.7V24h3.9v-6.8c0-2.4,1.2-3.5,2.9-3.5c1.6,0,2.6,1,2.6,3.2V24h3.9v-6.8
	c0-2.4,1.2-3.5,3-3.5c1.6,0,2.5,1,2.5,3.2V24h3.9v-7.7C105,12.2,102.7,10.4,99.5,10.4z M118.9,10.6v1.7c-1-1.3-2.6-1.9-4.4-1.9
	c-3.7,0-6.7,2.6-6.7,6.5s3,6.5,6.7,6.5c1.8,0,3.2-0.6,4.3-1.7v0.6c0,2.4-1.2,3.7-4,3.7c-1.7,0-3.6-0.6-4.8-1.5l-1.5,2.8
	c1.6,1.2,4,1.8,6.6,1.8c4.8,0,7.6-2.3,7.6-7.3V10.6H118.9z M115.2,20.1c-2.1,0-3.6-1.3-3.6-3.3s1.5-3.3,3.6-3.3c2,0,3.5,1.3,3.5,3.3
	S117.2,20.1,115.2,20.1z M131.6,10.4c-2.1,0-4.3,0.6-5.8,1.6l1.4,2.7c1-0.8,2.4-1.3,3.9-1.3c2.1,0,3.1,1,3.1,2.7h-3.1
	c-4.1,0-5.8,1.6-5.8,4c0,2.3,1.9,4.1,5,4.1c2,0,3.4-0.7,4.1-1.9V24h3.6v-7.7C138.1,12.3,135.7,10.4,131.6,10.4z M131.3,21.6
	c-1.4,0-2.2-0.7-2.2-1.6s0.6-1.6,2.4-1.6h2.7v1.4C133.7,21,132.6,21.6,131.3,21.6z M158.8,10.4c-2,0-3.8,0.8-4.9,2.2
	c-0.9-1.5-2.5-2.2-4.4-2.2c-1.7,0-3.2,0.6-4.2,1.8v-1.6h-3.7V24h3.9v-6.8c0-2.4,1.2-3.5,2.9-3.5c1.6,0,2.6,1,2.6,3.2V24h3.9v-6.8
	c0-2.4,1.2-3.5,3-3.5c1.6,0,2.6,1,2.6,3.2V24h3.9v-7.7C164.3,12.2,162,10.4,158.8,10.4z M181.2,17.3c0-4.3-3.1-7-7-7
	c-4.1,0-7.2,2.9-7.2,6.9s3,6.9,7.7,6.9c2.4,0,4.3-0.8,5.6-2.2l-2.1-2.3c-0.9,0.9-2,1.3-3.4,1.3c-2.1,0-3.5-1-3.9-2.7h10.2
	C181.1,18,181.2,17.6,181.2,17.3z M174.2,13.3c1.8,0,3,1.1,3.3,2.8h-6.6C171.1,14.4,172.4,13.3,174.2,13.3z"/>
</svg>
